<svg width="435" height="626" viewBox="0 0 435 626" fill="none" xmlns="http://www.w3.org/2000/svg">
<g clip-path="url(#clip0_9_303)">
<path d="M0 625.83H434.175V7.62939e-05H0V625.83Z" fill="white"/>
<path d="M228.855 598.805L57.2222 551.952L98.8893 530.482C99.841 535.174 100.771 537.324 101.026 537.858C101.071 537.95 101.094 537.995 101.094 537.995L116.192 542.013L121.256 543.359L236.469 574.031L241.56 575.378L263.816 581.306L228.855 598.805Z" fill="#F1E3E2"/>
<path d="M100.897 458.684L192.46 404.712L348.496 447.153L262.718 503.417L100.897 458.684Z" fill="#7A71C0"/>
<path d="M136.888 454.262L193.417 418.97L313.31 451.501L259.505 487.901L136.888 454.262Z" fill="#574FAB"/>
<path d="M348.496 447.153L348.332 452.067L345.49 454.282L346.583 519.839L348.056 518.869L347.961 523.522L263.814 581.304C263.814 581.304 254.405 577.621 253.854 566.892C253.075 551.708 262.719 503.417 262.719 503.417L348.496 447.153Z" fill="#685FB5"/>
<path d="M229.576 494.26L179.426 480.396C179.426 480.394 179.426 480.393 179.426 480.393L229.582 494.258L229.576 494.26ZM133.156 467.602L103.785 459.483L103.468 459.395L133.154 467.601L133.156 467.602Z" fill="#DCBDBD"/>
<path d="M229.582 494.258L179.426 480.393C179.458 475.254 179.13 470.122 178.712 465.736L251.79 485.784L229.582 494.258ZM276.662 476.294L313.31 451.501L251.13 434.63L255.411 431.764L259.539 430.622L327.527 456.885L276.662 476.294ZM133.154 467.601L103.468 459.395L100.898 458.683L111.329 452.535L133.154 467.601Z" fill="#6B5A9C"/>
<path d="M251.79 485.784L178.712 465.736C178.03 458.583 177.107 453.41 177.107 453.41L228.253 439.271L243.275 439.887L251.13 434.63L313.31 451.501L276.662 476.294L251.79 485.784Z" fill="#4B418C"/>
<path d="M263.816 581.306L241.56 575.378L236.469 574.031L121.256 543.359L116.192 542.013L101.094 537.995C101.094 537.995 96.4893 529.51 96.4893 499.448C96.4893 466.07 100.895 458.683 100.895 458.683L117.534 463.288L122.373 464.622L237.015 496.317L241.872 497.652L262.718 503.417C262.718 503.417 259.081 520.288 259.081 542.911C259.081 563.675 263.816 581.306 263.816 581.306Z" fill="#574FAB"/>
<path d="M346.583 519.839L266.745 574.776C266.745 574.776 263.405 562.845 263.294 539.799C263.18 515.74 266.108 506.928 266.108 506.928L345.49 454.282L346.583 519.839Z" fill="#FDE3CC"/>
<path d="M345.64 463.268L345.49 454.282L345.672 463.244C345.672 463.244 345.661 463.253 345.64 463.268Z" fill="#DCBDBD"/>
<path d="M264.318 517.085C264.724 514.228 266.108 506.928 266.108 506.928L345.489 454.282L345.64 463.268C344.065 464.366 285.57 505.141 264.318 517.085Z" fill="#DDAB9B"/>
<path d="M241.56 575.378L236.469 574.031C233.171 538.07 235.197 510.916 237.015 496.317L241.872 497.652C240.122 512.052 238.097 539.479 241.56 575.378Z" fill="#7A71C0"/>
<path d="M121.256 543.359C116.956 505.443 119.794 477.474 122.373 464.622L117.534 463.288C114.352 476.286 112.197 503.417 116.192 542.013L121.256 543.359Z" fill="#7A71C0"/>
<path d="M263.816 581.306C263.816 581.305 263.816 581.305 263.816 581.302L263.813 581.305C263.816 581.305 263.816 581.306 263.816 581.306Z" fill="#E8F2F5"/>
<path d="M263.816 581.302C263.8 581.243 263.548 580.297 263.167 578.629C263.168 578.629 263.168 578.629 263.168 578.629C263.549 580.296 263.8 581.243 263.816 581.302L263.814 581.304Z" fill="#5C56B0"/>
<path d="M263.816 581.306L241.56 575.378C241.475 574.498 241.393 573.619 241.314 572.749C254.48 576.29 263.054 578.597 263.167 578.629C263.548 580.297 263.799 581.243 263.816 581.302C263.816 581.304 263.816 581.304 263.816 581.306ZM236.469 574.031L121.256 543.359C121.145 542.383 121.039 541.413 120.938 540.449C150.363 548.302 203.902 562.688 236.235 571.383C236.31 572.261 236.387 573.142 236.469 574.031ZM116.192 542.013L101.094 537.995C101.094 537.995 101.071 537.95 101.026 537.858C100.873 537.535 100.473 536.62 99.9705 534.918C100.307 534.968 106.335 536.558 115.9 539.106C115.993 540.066 116.091 541.037 116.192 542.013Z" fill="#4C49A6"/>
<path d="M241.56 575.378L236.469 574.031C236.387 573.142 236.31 572.261 236.235 571.383C237.994 571.856 239.689 572.311 241.314 572.749C241.393 573.619 241.475 574.498 241.56 575.378Z" fill="#6E67BA"/>
<path d="M121.256 543.359L116.192 542.013C116.091 541.037 115.993 540.066 115.9 539.106C117.486 539.528 119.168 539.977 120.938 540.449C121.039 541.413 121.145 542.383 121.256 543.359Z" fill="#6E67BA"/>
<path d="M335.227 409.699L262.878 368.48L110.412 409.95L177.107 453.41L335.227 409.699Z" fill="#F14D4F"/>
<path d="M251.13 434.63L250.358 434.42L252.902 432.457L255.411 431.764L251.13 434.63Z" fill="#4A2F50"/>
<path d="M243.275 439.887L228.253 439.271L238.067 436.559C240.546 439.042 243.275 439.887 243.275 439.887ZM243.275 439.887L250.358 434.42L251.13 434.63L243.275 439.887Z" fill="#311F45"/>
<path d="M228.253 439.271L150.517 436.083L110.412 409.95L182.341 390.385L242.27 401.562L247.711 397.575H247.712L242.27 401.562C242.27 401.562 233.42 413.531 234.136 427.407C234.357 431.699 236.136 434.625 238.067 436.559L228.253 439.271ZM252.902 432.457L276.681 414.103L279.306 415.769L255.411 431.764L252.902 432.457ZM284.354 412.389L281.364 410.489L284.095 408.381L287.298 410.418L284.354 412.389ZM293.525 406.25L289.872 403.922L304.42 392.692L304.431 392.155L309.914 395.279L293.525 406.25Z" fill="#C82F2F"/>
<path d="M110.412 409.95L110.572 414.75L113.349 416.918L112.282 448.665L110.842 447.716L110.934 452.262L176.037 497.205C176.037 497.205 178.765 495.305 179.303 484.82C180.064 469.983 177.107 453.41 177.107 453.41L110.412 409.95Z" fill="#CC3A34"/>
<path d="M177.107 453.41L176.037 497.205L335.033 454.888L335.227 409.699L177.107 453.41Z" fill="#F0403D"/>
<path d="M209.583 444.339L202.289 446.354V490.071L209.583 488.13V444.339Z" fill="#F35C61"/>
<path d="M222.82 440.679L213.833 443.165V486.999L222.82 484.608V440.679Z" fill="#F35C61"/>
<path d="M141.949 401.233L134.655 403.25L202.289 446.144L209.583 444.203L141.949 401.233Z" fill="#F6858F"/>
<path d="M155.186 397.575L146.199 400.058L213.833 443.071L222.82 440.679L155.186 397.575Z" fill="#F6858F"/>
<path d="M229.045 377.249L221.75 379.265L289.385 422.16L296.679 420.218L229.045 377.249Z" fill="#F6858F"/>
<path d="M242.281 373.59L233.294 376.074L300.929 419.087L309.914 416.696L242.281 373.59Z" fill="#F6858F"/>
<path d="M309.914 416.696L302.621 418.711V463.393L309.914 461.452V416.696Z" fill="#F35C61"/>
<path d="M298.72 419.759L289.734 422.244V467.043L298.72 464.651V419.759Z" fill="#F35C61"/>
<path d="M112.282 448.665L173.172 490.828L173.796 456.841L113.349 416.918L112.282 448.665Z" fill="#F5D7BC"/>
<path d="M173.569 469.156L112.95 428.806L113.349 416.918L173.796 456.841L173.569 469.156Z" fill="#D2A390"/>
<path d="M93.7627 373.864L161.713 328.36L304.911 355.639L242.271 401.562L93.7627 373.864Z" fill="#43A3A5"/>
<path d="M247.712 397.575L103.253 367.685L125.132 352.968C126.193 358.045 127.161 361.638 127.161 361.638L251.98 394.444L247.711 397.575" fill="#348B99"/>
<path d="M304.911 355.639L304.761 360.16L302.152 362.408L303.155 389.416L304.507 388.416L304.42 392.692L243.275 439.887C243.275 439.887 234.641 437.212 234.136 427.407C233.42 413.531 242.271 401.562 242.271 401.562L304.911 355.639Z" fill="#AADAD6"/>
<path d="M242.271 401.562C242.271 401.562 238.318 404.712 238.423 422.381C238.489 433.408 243.275 439.887 243.275 439.887L93.9452 412.313C93.9452 412.313 89.2986 405.729 89.2222 393.375C89.1432 380.623 93.7628 373.864 93.7628 373.864L242.271 401.562Z" fill="#31888E"/>
<path d="M127.713 394.442L123.357 400.023L127.713 407.167L132.07 401.586L127.713 394.442Z" fill="#43A3A5"/>
<path d="M141.054 396.836L136.698 402.417L141.054 409.561L145.411 403.981L141.054 396.836Z" fill="#43A3A5"/>
<path d="M154.395 399.231L150.039 404.81L154.395 411.955L158.752 406.375L154.395 399.231Z" fill="#43A3A5"/>
<path d="M167.737 401.625L163.379 407.205L167.737 414.349L172.093 408.769L167.737 401.625Z" fill="#43A3A5"/>
<path d="M181.077 404.018L176.72 409.599L181.077 416.744L185.433 411.163L181.077 404.018Z" fill="#43A3A5"/>
<path d="M194.418 406.413L190.061 411.994L194.418 419.138L198.775 413.557L194.418 406.413Z" fill="#43A3A5"/>
<path d="M303.155 389.416L245.966 433.677L245.381 404.53L302.152 362.408L303.155 389.416Z" fill="#F5D7BC"/>
<path d="M245.714 421.107L245.381 404.53L257.146 395.801L270.035 399.189L245.714 421.107Z" fill="#C4BFB0"/>
<path d="M128.493 315.462L198.588 276.427L340.103 314.466L275.222 355.569L128.493 315.462Z" fill="#346B97"/>
<path d="M258.484 350.808L194.172 333.321L300.652 303.885L327.527 311.116L318.771 327.981L318.718 328.014L258.484 350.808Z" fill="#265A87"/>
<path d="M340.103 314.466L339.721 318.967L337.002 321.013L337.142 354.585L338.543 353.689L338.236 357.95L274.782 400.437C274.782 400.437 266.302 389.604 266.302 379.779C266.302 365.875 275.222 355.569 275.222 355.569L340.103 314.466Z" fill="#91BBCE"/>
<path d="M275.222 355.569C275.222 355.569 271.65 361.208 271.65 374.64C271.65 388.755 274.782 400.437 274.782 400.437L127.161 361.638C127.161 361.638 121.904 342.132 122.464 329.796C123.041 317.062 128.493 315.462 128.493 315.462L275.222 355.569Z" fill="#1E4A6E"/>
<path d="M275.222 355.569C275.222 355.569 226.932 351.266 184.006 347.883C182.561 339.016 176.115 338.312 176.115 338.312L194.001 333.368L275.222 355.569Z" fill="#193E60"/>
<path d="M122.422 331.608C122.422 331.099 122.432 330.591 122.451 330.086C122.432 330.583 122.422 331.091 122.422 331.608Z" fill="#B1D5DF"/>
<path d="M143.968 344.941C135.221 344.373 128.148 343.995 123.743 343.905C122.991 340.063 122.416 335.761 122.422 331.608C122.423 331.091 122.432 330.583 122.451 330.086L143.968 344.941Z" fill="#193E60"/>
<path d="M337.142 354.585L277.787 394.442C277.787 394.442 275.866 382.79 275.866 373.67C275.866 362.424 278.174 358.767 278.174 358.767L337.002 321.013L337.142 354.585Z" fill="white"/>
<path d="M337.012 323.379L337.002 321.013L337.015 323.376C337.014 323.378 337.013 323.379 337.012 323.379Z" fill="#DCBDBD"/>
<path d="M275.937 376.572C275.895 375.666 275.866 374.704 275.866 373.67C275.866 362.424 278.174 358.767 278.174 358.767L337.002 321.013L337.012 323.379C323.414 334.661 282.775 370.27 275.937 376.572Z" fill="#DCBDBD"/>
<path d="M324.623 297.259L256.673 258.544L113.475 297.494L176.115 338.312L324.623 297.259Z" fill="#F9A831"/>
<path d="M125.691 294.171L132.756 292.25H132.757L125.691 294.171Z" fill="#DCBDBD"/>
<path d="M186.437 329.31C186.437 329.31 189.165 327.408 189.703 316.924C190.465 302.088 187.507 285.514 187.507 285.514L201.538 281.635H201.539L212.629 278.627L214.992 279.405L198.598 283.919L239.897 311.934L297.086 295.78L266.624 277.425L276.353 271.703L312.377 295.788L186.437 329.31ZM186.437 329.31L125.691 294.171L132.757 292.25L186.437 329.31Z" fill="#DC8527"/>
<path d="M297.086 295.78L252.686 269.028L198.598 283.919L239.897 311.934L297.086 295.78Z" fill="white"/>
<path d="M113.475 297.494L113.625 302.003L116.234 304.038L115.232 320.85L113.879 319.96L113.967 324.229L175.111 366.441C175.111 366.441 183.745 363.06 184.251 353.213C184.966 339.28 176.115 338.312 176.115 338.312L113.475 297.494Z" fill="#F9C983"/>
<path d="M176.115 338.312C176.115 338.312 179.573 343.211 179.001 354.359C178.61 361.976 175.111 366.441 175.111 366.441L324.441 326.696C324.441 326.696 329.791 324.827 329.867 312.466C329.946 299.706 324.623 297.259 324.623 297.259L176.115 338.312Z" fill="#E67F16"/>
<path d="M115.232 320.85L172.42 360.45C172.42 360.45 175.111 360.45 175.111 351.76C175.111 345.969 173.005 341.534 173.005 341.534L116.234 304.038L115.232 320.85Z" fill="#FDE3CC"/>
<path d="M174.266 345.244C154.496 334.132 115.974 308.39 115.974 308.39L116.234 304.038L173.005 341.534C173.005 341.534 173.005 341.534 173.006 341.534C173.017 341.56 173.686 342.979 174.266 345.244Z" fill="#DDAB9B"/>
<path d="M345.627 241.803L273.279 200.582L120.813 242.053L187.507 285.514L345.627 241.803Z" fill="#43A2C2"/>
<path d="M201.539 281.635L212.533 278.596L212.629 278.627L201.539 281.635Z" fill="#9B6D23"/>
<path d="M201.539 281.635L160.048 261.291L209.013 277.434L210.906 278.564L211.765 278.342L212.533 278.596L201.538 281.635" fill="#3288B0"/>
<path d="M120.813 242.053L120.973 246.855L123.749 249.02L122.682 280.767L121.243 279.82L121.335 284.365L186.437 329.31C186.437 329.31 189.165 327.408 189.703 316.924C190.465 302.088 187.507 285.514 187.507 285.514L120.813 242.053Z" fill="#3184A6"/>
<path d="M187.507 285.514L186.438 329.31L345.433 286.992L345.627 241.803L187.507 285.514Z" fill="#3E93B3"/>
<path d="M233.22 272.784L210.906 278.564V322.399L233.22 316.71V272.784Z" fill="#2F667E"/>
<path d="M324.621 247.483L300.135 254.347V299.147L324.621 292.375V247.483Z" fill="#2F667E"/>
<path d="M233.22 272.783L210.906 278.564L139.568 235.975L161.882 230.287L233.22 272.783Z" fill="#2F667E"/>
<path d="M324.621 247.483L300.135 254.346L228.797 212.722L253.284 205.951L324.621 247.483Z" fill="#2F667E"/>
<path d="M122.682 280.767L183.573 322.931L184.195 288.944L123.749 249.02L122.682 280.767Z" fill="#F5D7BC"/>
<path d="M183.97 301.259L123.35 260.91L123.74 249.321L124.668 249.627L184.195 288.944L183.97 301.259Z" fill="#D2A390"/>
<path d="M102.376 197.215L173.645 158.01L313.749 205.683L247.588 242.304L102.376 197.215Z" fill="#F8A334"/>
<path d="M231.388 237.273L102.376 197.215L114.523 190.534L220.073 229.965L291.512 206.488L231.388 237.273Z" fill="#F6842A"/>
<path d="M313.749 205.683L313.218 210.151L310.436 212.01L309.718 248.066L309.658 246.755L311.146 247.267L310.701 251.502L245.919 289.603L247.588 242.304L313.749 205.683Z" fill="#FBCB76"/>
<path d="M247.588 242.304L245.919 289.603L101.486 241.985L102.376 197.215L247.588 242.304Z" fill="#F49B22"/>
<path d="M120.239 239.605L117.687 235.182L114.112 234.067L114.079 228.925L111.527 224.501L114.033 221.653L114.001 216.51L117.577 217.625L120.084 214.776L122.635 219.201L126.212 220.315L126.244 225.456L128.795 229.881L126.289 232.73L126.321 237.872L122.745 236.758L120.239 239.605Z" fill="#FAE0B5"/>
<path d="M155.005 250.436L152.454 246.012L148.877 244.898L148.845 239.757L146.293 235.332L148.799 232.483L148.767 227.341L152.343 228.455L154.849 225.608L157.401 230.031L160.977 231.145L161.009 236.288L163.561 240.712L161.055 243.56L161.088 248.702L157.511 247.588L155.005 250.436Z" fill="#FAE0B5"/>
<path d="M189.771 261.268L187.22 256.844L183.643 255.729L183.611 250.587L181.059 246.163L183.565 243.315L183.533 238.173L187.109 239.287L189.616 236.438L192.167 240.863L195.743 241.977L195.776 247.119L198.328 251.544L195.821 254.391L195.853 259.534L192.277 258.419L189.771 261.268Z" fill="#FAE0B5"/>
<path d="M224.536 272.1L221.985 267.675L218.409 266.561L218.376 261.418L215.825 256.994L218.331 254.146L218.298 249.004L221.876 250.118L224.381 247.269L226.933 251.694L230.51 252.808L230.542 257.95L233.094 262.374L230.587 265.223L230.619 270.365L227.043 269.251L224.536 272.1Z" fill="#FAE0B5"/>
<path d="M309.718 248.066L249.118 283.819L250.431 245.7L310.436 212.01L309.718 248.066Z" fill="white"/>
<path d="M250.128 252.196L250.431 245.699L250.21 252.148C250.156 252.179 250.128 252.196 250.128 252.196ZM250.431 245.699L310.436 212.009V212.01L250.431 245.699Z" fill="#E89D5A"/>
<path d="M250.21 252.148L250.431 245.699L310.436 212.01L310.371 214.373C296.759 224.458 252.363 250.868 250.21 252.148Z" fill="#DCBDBD"/>
<path d="M114.248 150.223L217.346 119.935L319.614 158.625L219.094 189.82L114.248 150.223Z" fill="#768A6D"/>
<path d="M153.826 152.052L217.365 133.099L261.499 150.223L198.598 169.743L153.826 152.052Z" fill="#A8C19E"/>
<path d="M319.614 158.625L319.467 163.026L316.922 165.011L317.9 194.111L317.86 192.912L319.085 193.946L319.135 197.409L220.073 229.965C220.073 229.965 217.574 228.221 217.08 218.611C216.382 205.012 219.093 189.82 219.093 189.82L319.614 158.625Z" fill="#A8C19E"/>
<path d="M219.094 189.82L220.073 229.965L114.426 190.498L114.248 150.223L219.094 189.82Z" fill="#657C5E"/>
<path d="M125.606 162.969L203.328 193.15V217.062L125.606 185.786V162.969Z" fill="#A8C19E"/>
<path d="M146.47 140.758L146.469 140.757L217.346 119.935L146.47 140.758Z" fill="#AEC5A5"/>
<path d="M191.497 179.398L191.495 179.397L164.954 167.566C164.579 162.324 163.753 158.439 162.853 155.619L198.598 169.743L261.499 150.223L217.364 133.099L160.343 150.107C159.811 149.313 159.457 148.985 159.457 148.985L146.47 140.758L217.346 119.935L309.935 154.964L191.497 179.398Z" fill="#526A4B"/>
<path d="M198.598 169.743L162.853 155.619C161.97 152.853 161.016 151.108 160.344 150.107L217.365 133.099L261.499 150.223L198.598 169.743Z" fill="#75956E"/>
<path d="M317.9 194.111L222.7 224.117L222.128 192.965L316.922 165.011L317.9 194.111Z" fill="white"/>
<path d="M222.128 204.554V192.965L222.339 204.471L222.128 204.554Z" fill="#93B18B"/>
<path d="M317.002 167.423L316.922 165.011L317.288 167.312L317.002 167.423Z" fill="#DDE7D6"/>
<path d="M222.339 204.471L222.128 192.965L316.922 165.011L317.003 167.423L222.339 204.471Z" fill="#DDE7D6"/>
<path d="M306.186 108.878L236.091 69.8414L94.5764 107.882L159.457 148.985L306.186 108.878Z" fill="#F2538B"/>
<path d="M94.5764 107.882L94.9594 112.383L97.6773 114.428L97.5375 140.491L96.1368 139.595L96.4434 143.856L159.898 186.342C159.898 186.342 165.659 183.642 165.088 169.94C164.405 153.557 159.457 148.985 159.457 148.985L94.5764 107.882Z" fill="#EF4B78"/>
<path d="M159.457 148.985C159.457 148.985 163.029 154.624 163.029 168.058C163.029 182.17 159.898 186.342 159.898 186.342L307.518 147.544C307.518 147.544 311.907 140.554 311.349 128.219C310.771 115.484 306.186 108.878 306.186 108.878L159.457 148.985Z" fill="#DD396D"/>
<path d="M97.5374 140.491L156.893 180.348C156.893 180.348 158.813 176.206 158.813 167.087C158.813 155.839 156.505 152.183 156.505 152.183L97.6772 114.428L97.5374 140.491Z" fill="#F5D7BC"/>
<path d="M158.705 163.047C158.705 163.047 111.261 128.072 97.665 116.794L97.6772 114.428L156.505 152.183C156.505 152.183 156.506 152.184 156.508 152.187L156.509 152.188C156.595 152.328 158.259 155.153 158.705 163.047Z" fill="#D2A390"/>
<path d="M276.206 138.401C275.524 143.698 256.905 152.395 234.62 157.826C212.336 163.256 194.825 163.364 195.508 158.067C196.192 152.769 214.811 144.072 237.095 138.643C259.379 133.212 276.89 133.103 276.206 138.401Z" fill="#EF4B78"/>
<path d="M250.133 99.9851C252.292 108.281 231.207 118.541 203.037 122.903C174.867 127.264 150.28 124.075 148.121 115.779C145.962 107.483 167.047 97.2214 195.216 92.8607C223.386 88.4986 247.973 91.6891 250.133 99.9851Z" fill="#F4679E"/>
</g>
<defs>
<clipPath id="clip0_9_303">
<rect width="434.175" height="625.83" fill="white"/>
</clipPath>
</defs>
</svg>
