<svg width="164" height="40" viewBox="0 0 164 40" fill="none" xmlns="http://www.w3.org/2000/svg">
<path fill-rule="evenodd" clip-rule="evenodd" d="M8.55273 3.59787C7.12207 4.59823 5.82837 5.78098 4.70532 7.1124C9.29462 6.68633 15.1252 7.38205 21.8944 10.7667C29.123 14.3809 34.9438 14.5031 38.9948 13.7217C38.6272 12.6088 38.1644 11.5392 37.6163 10.5224C32.979 11.0115 27.034 10.3641 20.1056 6.89998C15.706 4.70018 11.8278 3.79401 8.55273 3.59787ZM34.9074 6.66665C31.2453 2.575 25.9234 0 20 0C18.2605 0 16.5727 0.222107 14.9637 0.63948C17.1429 1.23409 19.4579 2.10399 21.8944 3.32227C26.967 5.85853 31.3464 6.67516 34.9074 6.66665ZM39.8609 17.6281C34.9669 18.5945 28.2088 18.396 20.1056 14.3444C12.53 10.5566 6.50043 10.6043 2.4339 11.508C2.224 11.5546 2.01904 11.6036 1.81903 11.6546C1.28662 12.8125 0.861634 14.0301 0.556702 15.2945C0.882386 15.2075 1.21893 15.1248 1.56616 15.0476C6.49957 13.9513 13.4701 13.9989 21.8944 18.2111C29.4701 21.9989 35.4996 21.9512 39.5662 21.0475C39.7055 21.0166 39.8428 20.9846 39.9778 20.9516C39.9926 20.6363 40 20.319 40 20C40 19.1975 39.9528 18.406 39.8609 17.6281ZM39.3248 25.1723C34.4783 26.0196 27.917 25.6944 20.1056 21.7888C12.53 18.001 6.50043 18.0487 2.4339 18.9524C1.53125 19.1529 0.719239 19.3972 0.00293 19.6551C0.000977 19.7698 0 19.8848 0 20C0 31.0457 8.95429 40 20 40C29.2571 40 37.0453 33.7109 39.3248 25.1723Z" fill="url(#paint0_linear_1_5)"/>
<path d="M56.375 11.375C58.225 11.375 59.8417 11.75 61.225 12.5C62.625 13.2333 63.7 14.2667 64.45 15.6C65.2 16.9333 65.575 18.4583 65.575 20.175C65.575 21.875 65.1917 23.3917 64.425 24.725C63.675 26.0583 62.6 27.1083 61.2 27.875C59.8167 28.625 58.2083 29 56.375 29H49.4V11.375H56.375ZM56 24.675C57.4333 24.675 58.5583 24.2833 59.375 23.5C60.1917 22.7167 60.6 21.6083 60.6 20.175C60.6 18.725 60.1917 17.6083 59.375 16.825C58.5583 16.025 57.4333 15.625 56 15.625H54.3V24.675H56ZM70.2588 13.675C69.3921 13.675 68.6921 13.4417 68.1588 12.975C67.6421 12.4917 67.3838 11.8917 67.3838 11.175C67.3838 10.4417 67.6421 9.83333 68.1588 9.35C68.6921 8.86667 69.3921 8.625 70.2588 8.625C71.1088 8.625 71.7921 8.86667 72.3088 9.35C72.8421 9.83333 73.1088 10.4417 73.1088 11.175C73.1088 11.8917 72.8421 12.4917 72.3088 12.975C71.7921 13.4417 71.1088 13.675 70.2588 13.675ZM72.6838 14.975V29H67.7838V14.975H72.6838ZM80.6492 14.8C81.5992 14.8 82.4242 14.9917 83.1242 15.375C83.8409 15.7583 84.3909 16.275 84.7742 16.925V14.975H89.6742V28.85C89.6742 30.1667 89.4242 31.35 88.9242 32.4C88.4242 33.4667 87.6409 34.3167 86.5742 34.95C85.5242 35.5833 84.1909 35.9 82.5742 35.9C80.4076 35.9 78.6742 35.3917 77.3742 34.375C76.0742 33.3583 75.3326 31.975 75.1492 30.225H79.9742C80.0742 30.675 80.3242 31.025 80.7242 31.275C81.1242 31.525 81.6409 31.65 82.2742 31.65C83.9409 31.65 84.7742 30.7167 84.7742 28.85V27.05C84.3909 27.7 83.8409 28.2167 83.1242 28.6C82.4242 28.9833 81.5992 29.175 80.6492 29.175C79.5326 29.175 78.5159 28.8833 77.5992 28.3C76.6992 27.7167 75.9826 26.8833 75.4492 25.8C74.9326 24.7 74.6742 23.425 74.6742 21.975C74.6742 20.525 74.9326 19.2583 75.4492 18.175C75.9826 17.0917 76.6992 16.2583 77.5992 15.675C78.5159 15.0917 79.5326 14.8 80.6492 14.8ZM84.7742 21.975C84.7742 21.075 84.5242 20.3667 84.0242 19.85C83.5409 19.3333 82.9409 19.075 82.2242 19.075C81.4909 19.075 80.8826 19.3333 80.3992 19.85C79.9159 20.35 79.6742 21.0583 79.6742 21.975C79.6742 22.875 79.9159 23.5917 80.3992 24.125C80.8826 24.6417 81.4909 24.9 82.2242 24.9C82.9409 24.9 83.5409 24.6417 84.0242 24.125C84.5242 23.6083 84.7742 22.8917 84.7742 21.975ZM94.9414 13.675C94.0747 13.675 93.3747 13.4417 92.8414 12.975C92.3247 12.4917 92.0664 11.8917 92.0664 11.175C92.0664 10.4417 92.3247 9.83333 92.8414 9.35C93.3747 8.86667 94.0747 8.625 94.9414 8.625C95.7914 8.625 96.4747 8.86667 96.9914 9.35C97.5247 9.83333 97.7914 10.4417 97.7914 11.175C97.7914 11.8917 97.5247 12.4917 96.9914 12.975C96.4747 13.4417 95.7914 13.675 94.9414 13.675ZM97.3664 14.975V29H92.4664V14.975H97.3664Z" fill="#090255"/>
<path d="M111.407 19.95C112.44 20.1833 113.257 20.7 113.857 21.5C114.474 22.2833 114.782 23.1833 114.782 24.2C114.782 25.7 114.265 26.875 113.232 27.725C112.199 28.575 110.749 29 108.882 29H100.157V11.375H108.607C110.407 11.375 111.815 11.775 112.832 12.575C113.865 13.375 114.382 14.5 114.382 15.95C114.382 16.9833 114.107 17.85 113.557 18.55C113.024 19.2333 112.307 19.7 111.407 19.95ZM105.057 18.375H107.532C108.765 18.375 109.382 17.8667 109.382 16.85C109.382 15.8 108.765 15.275 107.532 15.275H105.057V18.375ZM107.907 25.05C109.14 25.05 109.757 24.5333 109.757 23.5C109.757 22.9667 109.59 22.5583 109.257 22.275C108.94 21.9917 108.482 21.85 107.882 21.85H105.057V25.05H107.907ZM123.454 29.175C122.054 29.175 120.796 28.8833 119.679 28.3C118.579 27.7167 117.713 26.8833 117.079 25.8C116.446 24.7167 116.129 23.4417 116.129 21.975C116.129 20.525 116.446 19.2583 117.079 18.175C117.729 17.0917 118.604 16.2583 119.704 15.675C120.821 15.0917 122.079 14.8 123.479 14.8C124.879 14.8 126.129 15.0917 127.229 15.675C128.346 16.2583 129.221 17.0917 129.854 18.175C130.504 19.2583 130.829 20.525 130.829 21.975C130.829 23.425 130.504 24.7 129.854 25.8C129.221 26.8833 128.346 27.7167 127.229 28.3C126.113 28.8833 124.854 29.175 123.454 29.175ZM123.454 24.925C124.138 24.925 124.704 24.675 125.154 24.175C125.621 23.6583 125.854 22.925 125.854 21.975C125.854 21.025 125.621 20.3 125.154 19.8C124.704 19.3 124.146 19.05 123.479 19.05C122.813 19.05 122.254 19.3 121.804 19.8C121.354 20.3 121.129 21.025 121.129 21.975C121.129 22.9417 121.346 23.675 121.779 24.175C122.213 24.675 122.771 24.925 123.454 24.925ZM139.348 29.175C137.948 29.175 136.69 28.8833 135.573 28.3C134.473 27.7167 133.606 26.8833 132.973 25.8C132.34 24.7167 132.023 23.4417 132.023 21.975C132.023 20.525 132.34 19.2583 132.973 18.175C133.623 17.0917 134.498 16.2583 135.598 15.675C136.715 15.0917 137.973 14.8 139.373 14.8C140.773 14.8 142.023 15.0917 143.123 15.675C144.24 16.2583 145.115 17.0917 145.748 18.175C146.398 19.2583 146.723 20.525 146.723 21.975C146.723 23.425 146.398 24.7 145.748 25.8C145.115 26.8833 144.24 27.7167 143.123 28.3C142.006 28.8833 140.748 29.175 139.348 29.175ZM139.348 24.925C140.031 24.925 140.598 24.675 141.048 24.175C141.515 23.6583 141.748 22.925 141.748 21.975C141.748 21.025 141.515 20.3 141.048 19.8C140.598 19.3 140.04 19.05 139.373 19.05C138.706 19.05 138.148 19.3 137.698 19.8C137.248 20.3 137.023 21.025 137.023 21.975C137.023 22.9417 137.24 23.675 137.673 24.175C138.106 24.675 138.665 24.925 139.348 24.925ZM157.491 29L153.616 23.25V29H148.716V10.5H153.616V20.475L157.491 14.975H163.366L157.841 22.025L163.466 29H157.491Z" fill="black"/>
<defs>
<linearGradient id="paint0_linear_1_5" x1="36" y1="43.2" x2="-3.73321" y2="35.5931" gradientUnits="userSpaceOnUse">
<stop stop-color="#4135A9"/>
<stop offset="1" stop-color="#1EB7C0"/>
</linearGradient>
</defs>
</svg>
