<svg width="48" height="44" viewBox="0 0 48 44" fill="none" xmlns="http://www.w3.org/2000/svg">
<path d="M32.38 3.66797H15.62C8.34 3.66797 4 7.6463 4 14.3196V29.6646C4 36.3563 8.34 40.3346 15.62 40.3346H32.36C39.64 40.3346 43.98 36.3563 43.98 29.683V14.3196C44 7.6463 39.66 3.66797 32.38 3.66797ZM34 31.6263H14C13.18 31.6263 12.5 31.003 12.5 30.2513C12.5 29.4996 13.18 28.8763 14 28.8763H34C34.82 28.8763 35.5 29.4996 35.5 30.2513C35.5 31.003 34.82 31.6263 34 31.6263ZM34 23.3763H14C13.18 23.3763 12.5 22.753 12.5 22.0013C12.5 21.2496 13.18 20.6263 14 20.6263H34C34.82 20.6263 35.5 21.2496 35.5 22.0013C35.5 22.753 34.82 23.3763 34 23.3763ZM34 15.1263H14C13.18 15.1263 12.5 14.503 12.5 13.7513C12.5 12.9996 13.18 12.3763 14 12.3763H34C34.82 12.3763 35.5 12.9996 35.5 13.7513C35.5 14.503 34.82 15.1263 34 15.1263Z" fill="#5D50C6"/>
</svg>
